{"title":"Love Child S03E08 1080P WEB-DL AAC2 0 H 264","uid":15460445,"size":1627139007,"categoryP":"video","categoryS":"hd___tv_shows","magnet":"?xt=urn:btih:084cbd57595b865841b54aac916d2ab1efcc5dc8&amp;dn=Love+Child+S03E08+1080P+WEB-DL+AAC2+0+H+264&amp;tr=udp%3A%2F%2Ftracker.leechers-paradise.org%3A6969&amp;tr=udp%3A%2F%2Fzer0day.ch%3A1337&amp;tr=udp%3A%2F%2Fopen.demonii.com%3A1337&amp;tr=udp%3A%2F%2Ftracker.coppersurfer.tk%3A6969&amp;tr=udp%3A%2F%2Fexodus.desync.com%3A6969","seeders":2,"leechers":0,"uploader":"jmanwf","files":1,"time":1470040336,"description":"Annie (Gracie Gilbert) and her unborn baby’s life hang in the balance after a violent protest goes awry\r\n\r\n\r\n\r\nVideo\r\nID                                       : 2\r\nFormat                                   : AVC\r\nFormat/Info                              : Advanced Video Codec\r\nFormat profile                           :   \r\nFormat settings, CABAC                   : Yes\r\nFormat settings, ReFrames                : 4 frames\r\nCodec ID                                 : avc1\r\nCodec ID/Info                            : Advanced Video Coding\r\nDuration                                 : 41mn 32s\r\nBit rate                                 : 5 093 Kbps\r\nWidth                                    : 1 912 pixels\r\nHeight                                   : 1 072 pixels\r\nDisplay aspect ratio                     : 16:9\r\nFrame rate mode                          : Constant\r\nFrame rate                               : 25.000 fps\r\nColor space                              : YUV\r\nChroma subsampling                       : 4:2:0\r\nBit depth                                : 8 bits\r\nScan type                                : Progressive\r\nBits/(Pixel*Frame)                       : 0.099\r\nStream size                              : 1.48 GiB (98%)\r\nLanguage                                 : English\r\nEncoded date                             : UTC 2016-08-01 05:53:00\r\nTagged date                              : UTC 2016-08-01 05:54:03\r\nColor range                              : Limited\r\nColor primaries                          : BT.709\r\nTransfer characteristics                 : BT.709\r\nMatrix coefficients                      : BT.709\r\n\r\nAudio\r\nID                                       : 1\r\nFormat                                   : AAC\r\nFormat/Info                              : Advanced Audio Codec\r\nFormat profile                           : LC\r\nCodec ID                                 : 40\r\nDuration                                 : 41mn 32s\r\nBit rate mode                            : Variable\r\nBit rate                                 : 126 Kbps\r\nMaximum bit rate                         : 211 Kbps\r\nChannel(s)                               : 2 channels\r\nChannel positions                        : Front: L R\r\nSampling rate                            : 48.0 KHz\r\nFrame rate                               : 46.875 fps (1024 spf)\r\nCompression mode                         : Lossy\r\nStream size                              : 37.5 MiB (2%)\r\nLanguage                                 : English\r\nDefault                                  : Yes\r\nAlternate group                          : 1\r\nEncoded date                             : UTC 2016-08-01 05:50:38\r\nTagged date                              : UTC 2016-08-01 05:52:59","torrent":{"xt":"urn:btih:084cbd57595b865841b54aac916d2ab1efcc5dc8","amp;dn":"Love+Child+S03E08+1080P+WEB-DL+AAC2+0+H+264","amp;tr":["udp%3A%2F%2Ftracker.leechers-paradise.org%3A6969","udp%3A%2F%2Fzer0day.ch%3A1337","udp%3A%2F%2Fopen.demonii.com%3A1337","udp%3A%2F%2Ftracker.coppersurfer.tk%3A6969","udp%3A%2F%2Fexodus.desync.com%3A6969"],"infoHash":"084cbd57595b865841b54aac916d2ab1efcc5dc8","infoHashBuffer":{"type":"Buffer","data":[8,76,189,87,89,91,134,88,65,181,74,172,145,109,42,177,239,204,93,200]},"announce":[],"urlList":[]}}